<svg width="138" height="26" viewBox="0 0 138 26" fill="none" xmlns="http://www.w3.org/2000/svg">
<g id="logo_25" clip-path="url(#clip0_7854_18852)">
<path id="Vector" d="M108.852 9.39502C108.852 8.28362 109.795 7.50228 111.224 7.50228C113.781 7.50228 117.492 9.91367 118.436 13.066L120.029 8.35772C120.029 8.35772 116.494 6.53906 112.126 6.53906C108.517 6.53906 103.362 7.87274 103.362 12.2847C103.403 19.1417 115.701 18.6634 115.701 22.8531C115.701 24.0049 114.833 25.0018 113.104 25.0018C109.98 25.0422 105.276 21.6676 104.559 18.2929L103.328 23.9645C103.328 23.9645 107.758 26.0054 111.6 26.0054C117.205 26.0054 121.533 23.8904 121.457 19.8152C121.382 12.9919 108.852 13.2142 108.852 9.39502Z" fill="black"/>
<path id="Vector_2" d="M134.083 20.9949C132.99 20.9949 131.451 20.4762 131.451 17.9166V9.98191L138 10.0223L137.775 6.9845H131.376V1.60938C130.173 4.24305 125.88 8.2845 121.635 9.98865H124.567V18.0716C124.567 25.2249 128.895 25.9659 131.151 25.9659C134.261 25.9659 137.706 24.4907 137.98 18.0379C137.242 20.1866 135.416 20.9949 134.083 20.9949Z" fill="black"/>
<path id="Vector_3" d="M51.8713 20.8082C48.7746 20.5118 46.8195 18.2149 46.5187 14.5776H58.6459C58.6459 9.49889 54.9818 6.53516 50.5793 6.53516C45.1925 6.53516 40.5439 10.2398 40.5098 16.2818C40.5098 22.216 45.0831 25.9543 50.3606 25.9543C55.973 25.9543 58.2357 22.546 58.9125 17.5414C57.1693 20.0269 54.0657 21.0103 51.885 20.8015L51.8713 20.8082ZM49.5197 7.5792C51.3996 7.5792 52.0559 10.1388 52.1721 13.1766L46.4503 13.7694C46.4503 13.7694 45.9034 7.5792 49.5197 7.5792Z" fill="black"/>
<path id="Vector_4" d="M32.3557 20.8082C29.259 20.5118 27.3038 18.2149 27.0031 14.5776H39.1303C39.1303 9.49889 35.4661 6.53516 31.0637 6.53516C25.6769 6.53516 21.0283 10.2398 20.9941 16.2818C20.9941 22.216 25.5675 25.9543 30.8449 25.9543C36.4574 25.9543 38.7201 22.546 39.3969 17.5414C37.6537 20.0269 34.5501 21.0103 32.3694 20.8015L32.3557 20.8082ZM30.0041 7.5792C31.884 7.5792 32.5403 10.1388 32.6565 13.1766L26.9347 13.7694C26.9347 13.7694 26.3878 7.5792 30.0041 7.5792Z" fill="black"/>
<path id="Vector_5" d="M94.1799 20.8082C91.0832 20.5118 89.1281 18.2149 88.8273 14.5776H100.954C100.954 9.49889 97.2904 6.53516 92.8879 6.53516C87.5011 6.53516 82.8525 10.2398 82.8184 16.2818C82.8184 22.216 87.3917 25.9543 92.6692 25.9543C98.2816 25.9543 100.544 22.546 101.221 17.5414C99.4779 20.0269 96.3743 21.0103 94.1936 20.8015L94.1799 20.8082ZM91.8283 7.5792C93.7082 7.5792 94.3645 10.1388 94.4807 13.1766L88.7589 13.7694C88.7589 13.7694 88.212 7.5792 91.8283 7.5792Z" fill="black"/>
<path id="Vector_6" d="M15.0462 15.1352C18.3549 14.4684 20.768 12.7979 20.768 10.501C20.768 8.20415 18.0609 6.57409 14.6702 6.57409C11.5461 6.57409 8.34686 7.90777 6.88394 11.1342V0C6.88394 0 3.82821 1.82539 0 1.82539V25.5016H6.88394V14.5492C6.88394 11.7337 8.76386 10.1373 11.0198 10.1373C12.9407 10.1373 14.2191 11.1746 14.2191 12.5487C14.2191 14.1788 12.1409 15.6606 8.22381 15.957L13.5628 25.5083H23.4478C18.5531 23.7166 15.0462 15.1487 15.0462 15.1487V15.1352Z" fill="black"/>
<path id="Vector_7" d="M74.8899 25.4735C74.8899 25.4735 73.5227 21.6072 73.5227 15.3564C73.5227 11.9953 72.5862 10.6481 70.9729 10.6481C69.2023 10.6481 68.2316 12.2041 68.2316 15.5383V25.4735H61.3477V8.48597C65.1964 8.48597 68.1564 6.6067 68.1564 6.6067V11.7595C69.175 8.45903 71.383 6.49219 74.5823 6.49219C77.7816 6.49219 80.4067 7.65747 80.4067 13.9082C80.4067 21.6342 83.1411 25.4735 83.1411 25.4735H74.8899Z" fill="black"/>
</g>
<defs>
<clipPath id="clip0_7854_18852">
<rect width="138" height="26" fill="white"/>
</clipPath>
</defs>
</svg>
